<svg version="1.0" xmlns="http://www.w3.org/2000/svg"
 width="512.000000pt" height="512.000000pt" viewBox="0 0 512.000000 512.000000"
 preserveAspectRatio="xMidYMid meet">

<g transform="translate(0.000000,512.000000) scale(0.100000,-0.100000)"
fill="#000000" stroke="none">
<path d="M1082 5091 c-70 -24 -154 -83 -184 -129 -54 -81 -60 -119 -56 -389
l3 -248 34 -63 c40 -74 74 -105 156 -143 81 -38 154 -46 235 -25 116 30 184
88 238 204 27 57 27 57 27 298 l0 241 -40 79 c-48 94 -106 144 -204 174 -78
25 -140 25 -209 1z"/>
<path d="M3493 5096 c-103 -34 -176 -98 -222 -196 -26 -55 -26 -57 -26 -305
l0 -250 33 -67 c62 -126 170 -192 317 -192 72 -1 89 3 148 32 82 40 118 76
160 156 l32 61 3 238 c3 221 2 242 -18 302 -44 132 -170 225 -313 231 -43 3
-89 -2 -114 -10z"/>
<path d="M20 2425 l0 -2075 1305 0 c1042 0 1304 3 1298 13 -4 6 -38 57 -75
112 -36 55 -72 112 -79 128 l-12 27 -1039 0 -1038 0 0 1350 0 1350 2010 0
2010 0 0 -314 0 -314 88 -48 c48 -26 129 -76 180 -110 l92 -63 0 1009 0 1010
-314 0 -313 0 -6 -87 c-6 -92 -39 -207 -75 -265 -11 -17 -49 -60 -84 -95 -103
-104 -224 -153 -381 -153 -151 0 -283 56 -384 163 -91 96 -138 208 -150 354
l-6 83 -657 0 -658 0 -7 -82 c-22 -255 -165 -435 -399 -503 -93 -27 -249 -17
-345 22 -95 38 -164 93 -228 178 -65 86 -94 170 -101 293 l-5 92 -313 0 -314
0 0 -2075z"/>
<path d="M1727 2984 c-4 -4 -7 -115 -7 -246 l0 -238 250 0 250 0 -2 243 -3
242 -241 3 c-132 1 -243 -1 -247 -4z"/>
<path d="M2610 2745 l0 -245 126 0 126 0 81 54 c45 29 101 64 125 77 l42 24
-2 165 -3 165 -247 3 -248 2 0 -245z"/>
<path d="M3500 2889 c0 -80 3 -100 13 -96 42 16 225 29 343 25 l134 -5 0 88 0
89 -245 0 -245 0 0 -101z"/>
<path d="M3653 2620 c-296 -38 -554 -158 -766 -360 -94 -89 -210 -246 -270
-365 -84 -168 -130 -375 -131 -580 -1 -449 217 -850 594 -1098 342 -224 735
-274 1140 -145 269 86 514 275 677 524 146 222 213 447 213 718 0 160 -19 274
-71 430 -87 263 -267 496 -509 658 -160 108 -292 162 -490 202 -96 19 -294 27
-387 16z m297 -331 c107 -17 273 -77 358 -130 94 -58 216 -168 284 -259 65
-85 132 -228 165 -349 24 -84 27 -114 26 -241 -1 -167 -16 -242 -84 -396 -54
-123 -116 -209 -226 -315 -183 -176 -415 -269 -672 -269 -273 0 -505 96 -701
289 -98 98 -164 198 -217 331 -58 146 -77 255 -70 405 6 150 31 245 100 390
138 285 388 476 707 540 80 16 243 18 330 4z"/>
<path d="M4430 1716 c-19 -8 -157 -75 -305 -149 l-270 -136 -57 6 c-69 7 -122
-19 -161 -80 -66 -101 -5 -234 116 -254 67 -11 151 35 177 97 11 27 48 48 304
176 182 91 301 156 319 175 39 42 38 97 -4 138 -17 17 -37 31 -44 31 -7 0 -19
2 -27 4 -7 3 -29 -1 -48 -8z"/>
<path d="M840 1985 l0 -245 245 0 245 0 0 245 0 245 -245 0 -245 0 0 -245z"/>
<path d="M1727 2224 c-4 -4 -7 -115 -7 -246 l0 -238 250 0 250 0 -2 243 -3
242 -241 3 c-132 1 -243 -1 -247 -4z"/>
<path d="M840 1230 l0 -250 245 0 245 0 0 250 0 250 -245 0 -245 0 0 -250z"/>
<path d="M1725 1467 c-3 -7 -4 -118 -3 -247 l3 -235 245 0 245 0 0 245 0 245
-243 3 c-191 2 -244 0 -247 -11z"/>
</g>
</svg>
